<?xml version='1.0' encoding='UTF-8' standalone='no'?>
<svg xmlns:xlink="http://www.w3.org/1999/xlink" width="297mm" xmlns:dc="http://purl.org/dc/elements/1.1/" xmlns:inkscape="http://www.inkscape.org/namespaces/inkscape" xmlns:freecad="https://www.freecad.org/wiki/index.php?title=Svg_Namespace" xmlns:rdf="http://www.w3.org/1999/02/22-rdf-syntax-ns#" version="1.2" xmlns:svg="http://www.w3.org/2000/svg" xmlns:sodipodi="http://sodipodi.sourceforge.net/DTD/sodipodi-0.dtd" xmlns:cc="http://creativecommons.org/ns#" height="210mm" xmlns="http://www.w3.org/2000/svg" viewBox="0 0 2970 2100" baseProfile="tiny">
 <title>FreeCAD SVG Export</title>
 <desc>Drawing page: Page exported from FreeCAD document: ThrottleESPEnclosure_v1_2</desc>
 <defs/>
 <g inkscape:groupmode="layer" inkscape:label="TechDraw" id="Page">
  <g id="Default_Template_A4_Landscape.svg" transform="scale(10.000000, 10.000000)" style="stroke: none;">
   <metadata id="metadata8">
    <rdf:RDF>
     <cc:Work rdf:about="">
      <dc:format>image/svg+xml</dc:format>
      <dc:type rdf:resource="http://purl.org/dc/dcmitype/StillImage"/>
     </cc:Work>
    </rdf:RDF>
   </metadata>
  </g>
  <g fill="none" fill-rule="evenodd" stroke="black" id="DrawingContent" stroke-width="1" stroke-linejoin="bevel" stroke-linecap="square">
   <g font-weight="400" font-family="MS Shell Dlg 2" fill="#d68e6b" fill-opacity="1" stroke="none" transform="matrix(0,-10.0796,-10.0191,0,1985.96,1050)" font-style="normal" opacity="0.3" font-size="27.7813">
    <path d="M18.5,-28 L-18.5,-28 L18.5,-28" fill-rule="evenodd" vector-effect="none"/>
   </g>
   <g font-weight="400" stroke-opacity="1" font-family="MS Shell Dlg 2" fill="none" stroke="#191919" stroke-miterlimit="4" transform="matrix(0,-10.0796,-10.0191,0,1985.96,1050)" font-style="normal" stroke-width="0.7" stroke-linejoin="miter" stroke-linecap="square" font-size="27.7813">
    <path d="M18.5,-28 L-18.5,-28 L18.5,-28" fill-rule="evenodd" vector-effect="none"/>
   </g>
   <g font-weight="400" font-family="MS Shell Dlg 2" fill="#d68e6b" fill-opacity="1" stroke="none" transform="matrix(0,-10.0796,-10.0191,0,1985.96,1050)" font-style="normal" opacity="0.3" font-size="27.7813">
    <path d="M-18.5,-28 L-18.5,128 L-18.5,-28" fill-rule="evenodd" vector-effect="none"/>
   </g>
   <g font-weight="400" stroke-opacity="1" font-family="MS Shell Dlg 2" fill="none" stroke="#191919" stroke-miterlimit="4" transform="matrix(0,-10.0796,-10.0191,0,1985.96,1050)" font-style="normal" stroke-width="0.7" stroke-linejoin="miter" stroke-linecap="square" font-size="27.7813">
    <path d="M-18.5,-28 L-18.5,128 L-18.5,-28" fill-rule="evenodd" vector-effect="none"/>
   </g>
   <g font-weight="400" font-family="MS Shell Dlg 2" fill="#d68e6b" fill-opacity="1" stroke="none" transform="matrix(0,-10.0796,-10.0191,0,1985.96,1050)" font-style="normal" opacity="0.3" font-size="27.7813">
    <path d="M18.5,128 L18.5,-28 L18.5,128" fill-rule="evenodd" vector-effect="none"/>
   </g>
   <g font-weight="400" stroke-opacity="1" font-family="MS Shell Dlg 2" fill="none" stroke="#191919" stroke-miterlimit="4" transform="matrix(0,-10.0796,-10.0191,0,1985.96,1050)" font-style="normal" stroke-width="0.7" stroke-linejoin="miter" stroke-linecap="square" font-size="27.7813">
    <path d="M18.5,128 L18.5,-28 L18.5,128" fill-rule="evenodd" vector-effect="none"/>
   </g>
   <g font-weight="400" font-family="MS Shell Dlg 2" fill="#d68e6b" fill-opacity="1" stroke="none" transform="matrix(0,-10.0796,-10.0191,0,1985.96,1050)" font-style="normal" font-size="27.7813">
    <circle cy="-20.3" cx="17.2" r="1.2"/>
   </g>
   <g font-weight="400" stroke-opacity="1" font-family="MS Shell Dlg 2" fill="none" stroke="#191919" stroke-miterlimit="4" transform="matrix(0,-10.0796,-10.0191,0,1985.96,1050)" font-style="normal" stroke-width="0.7" stroke-linejoin="miter" stroke-linecap="square" font-size="27.7813">
    <circle cy="-20.3" cx="17.2" r="1.2"/>
   </g>
   <g font-weight="400" font-family="MS Shell Dlg 2" fill="#d68e6b" fill-opacity="1" stroke="none" transform="matrix(0,-10.0796,-10.0191,0,1985.96,1050)" font-style="normal" opacity="0.3" font-size="27.7813">
    <path d="M-18.5,128 L18.5,128 L-18.5,128" fill-rule="evenodd" vector-effect="none"/>
   </g>
   <g font-weight="400" stroke-opacity="1" font-family="MS Shell Dlg 2" fill="none" stroke="#191919" stroke-miterlimit="4" transform="matrix(0,-10.0796,-10.0191,0,1985.96,1050)" font-style="normal" stroke-width="0.7" stroke-linejoin="miter" stroke-linecap="square" font-size="27.7813">
    <path d="M-18.5,128 L18.5,128 L-18.5,128" fill-rule="evenodd" vector-effect="none"/>
   </g>
   <g font-weight="400" font-family="MS Shell Dlg 2" fill="#d68e6b" fill-opacity="1" stroke="none" transform="matrix(0,-10.0796,-10.0191,0,1985.96,1050)" font-style="normal" font-size="27.7813">
    <circle cy="-20.3" cx="17.2" r="1.2"/>
   </g>
   <g font-weight="400" stroke-opacity="1" font-family="MS Shell Dlg 2" fill="none" stroke="#191919" stroke-miterlimit="4" transform="matrix(0,-10.0796,-10.0191,0,1985.96,1050)" font-style="normal" stroke-width="0.7" stroke-linejoin="miter" stroke-linecap="square" font-size="27.7813">
    <circle cy="-20.3" cx="17.2" r="1.2"/>
   </g>
   <g font-weight="400" font-family="MS Shell Dlg 2" fill="#d68e6b" fill-opacity="1" stroke="none" transform="matrix(0,-10.0796,-10.0191,0,1985.96,1050)" font-style="normal" font-size="27.7813">
    <circle cy="-19.18" cx="11.43" r="0.6"/>
   </g>
   <g font-weight="400" stroke-opacity="1" font-family="MS Shell Dlg 2" fill="none" stroke="#191919" stroke-miterlimit="4" transform="matrix(0,-10.0796,-10.0191,0,1985.96,1050)" font-style="normal" stroke-width="0.7" stroke-linejoin="miter" stroke-linecap="square" font-size="27.7813">
    <circle cy="-19.18" cx="11.43" r="0.6"/>
   </g>
   <g font-weight="400" font-family="MS Shell Dlg 2" fill="#d68e6b" fill-opacity="1" stroke="none" transform="matrix(0,-10.0796,-10.0191,0,1985.96,1050)" font-style="normal" font-size="27.7813">
    <circle cy="-1.4" cx="11.43" r="0.6"/>
   </g>
   <g font-weight="400" stroke-opacity="1" font-family="MS Shell Dlg 2" fill="none" stroke="#191919" stroke-miterlimit="4" transform="matrix(0,-10.0796,-10.0191,0,1985.96,1050)" font-style="normal" stroke-width="0.7" stroke-linejoin="miter" stroke-linecap="square" font-size="27.7813">
    <circle cy="-1.4" cx="11.43" r="0.6"/>
   </g>
   <g font-weight="400" font-family="MS Shell Dlg 2" fill="#d68e6b" fill-opacity="1" stroke="none" transform="matrix(0,-10.0796,-10.0191,0,1985.96,1050)" font-style="normal" font-size="27.7813">
    <circle cy="-19.2" cx="8.6" r="0.6"/>
   </g>
   <g font-weight="400" stroke-opacity="1" font-family="MS Shell Dlg 2" fill="none" stroke="#191919" stroke-miterlimit="4" transform="matrix(0,-10.0796,-10.0191,0,1985.96,1050)" font-style="normal" stroke-width="0.7" stroke-linejoin="miter" stroke-linecap="square" font-size="27.7813">
    <circle cy="-19.2" cx="8.6" r="0.6"/>
   </g>
   <g font-weight="400" font-family="MS Shell Dlg 2" fill="#d68e6b" fill-opacity="1" stroke="none" transform="matrix(0,-10.0796,-10.0191,0,1985.96,1050)" font-style="normal" font-size="27.7813">
    <circle cy="-1.4" cx="8.89" r="0.6"/>
   </g>
   <g font-weight="400" stroke-opacity="1" font-family="MS Shell Dlg 2" fill="none" stroke="#191919" stroke-miterlimit="4" transform="matrix(0,-10.0796,-10.0191,0,1985.96,1050)" font-style="normal" stroke-width="0.7" stroke-linejoin="miter" stroke-linecap="square" font-size="27.7813">
    <circle cy="-1.4" cx="8.89" r="0.6"/>
   </g>
   <g font-weight="400" font-family="MS Shell Dlg 2" fill="#d68e6b" fill-opacity="1" stroke="none" transform="matrix(0,-10.0796,-10.0191,0,1985.96,1050)" font-style="normal" font-size="27.7813">
    <circle cy="21.1" cx="17.2" r="1.2"/>
   </g>
   <g font-weight="400" stroke-opacity="1" font-family="MS Shell Dlg 2" fill="none" stroke="#191919" stroke-miterlimit="4" transform="matrix(0,-10.0796,-10.0191,0,1985.96,1050)" font-style="normal" stroke-width="0.7" stroke-linejoin="miter" stroke-linecap="square" font-size="27.7813">
    <circle cy="21.1" cx="17.2" r="1.2"/>
   </g>
   <g font-weight="400" font-family="MS Shell Dlg 2" fill="#d68e6b" fill-opacity="1" stroke="none" transform="matrix(0,-10.0796,-10.0191,0,1985.96,1050)" font-style="normal" font-size="27.7813">
    <circle cy="48" cx="12" r="2"/>
   </g>
   <g font-weight="400" stroke-opacity="1" font-family="MS Shell Dlg 2" fill="none" stroke="#191919" stroke-miterlimit="4" transform="matrix(0,-10.0796,-10.0191,0,1985.96,1050)" font-style="normal" stroke-width="0.7" stroke-linejoin="miter" stroke-linecap="square" font-size="27.7813">
    <circle cy="48" cx="12" r="2"/>
   </g>
   <g font-weight="400" font-family="MS Shell Dlg 2" fill="#d68e6b" fill-opacity="1" stroke="none" transform="matrix(0,-10.0796,-10.0191,0,1985.96,1050)" font-style="normal" font-size="27.7813">
    <circle cy="-19.2" cx="-9.18" r="0.6"/>
   </g>
   <g font-weight="400" stroke-opacity="1" font-family="MS Shell Dlg 2" fill="none" stroke="#191919" stroke-miterlimit="4" transform="matrix(0,-10.0796,-10.0191,0,1985.96,1050)" font-style="normal" stroke-width="0.7" stroke-linejoin="miter" stroke-linecap="square" font-size="27.7813">
    <circle cy="-19.2" cx="-9.18" r="0.6"/>
   </g>
   <g font-weight="400" font-family="MS Shell Dlg 2" fill="#d68e6b" fill-opacity="1" stroke="none" transform="matrix(0,-10.0796,-10.0191,0,1985.96,1050)" font-style="normal" font-size="27.7813">
    <circle cy="-1.4" cx="-8.89" r="0.6"/>
   </g>
   <g font-weight="400" stroke-opacity="1" font-family="MS Shell Dlg 2" fill="none" stroke="#191919" stroke-miterlimit="4" transform="matrix(0,-10.0796,-10.0191,0,1985.96,1050)" font-style="normal" stroke-width="0.7" stroke-linejoin="miter" stroke-linecap="square" font-size="27.7813">
    <circle cy="-1.4" cx="-8.89" r="0.6"/>
   </g>
   <g font-weight="400" font-family="MS Shell Dlg 2" fill="#d68e6b" fill-opacity="1" stroke="none" transform="matrix(0,-10.0796,-10.0191,0,1985.96,1050)" font-style="normal" font-size="27.7813">
    <circle cy="-19.18" cx="-11.43" r="0.6"/>
   </g>
   <g font-weight="400" stroke-opacity="1" font-family="MS Shell Dlg 2" fill="none" stroke="#191919" stroke-miterlimit="4" transform="matrix(0,-10.0796,-10.0191,0,1985.96,1050)" font-style="normal" stroke-width="0.7" stroke-linejoin="miter" stroke-linecap="square" font-size="27.7813">
    <circle cy="-19.18" cx="-11.43" r="0.6"/>
   </g>
   <g font-weight="400" font-family="MS Shell Dlg 2" fill="#d68e6b" fill-opacity="1" stroke="none" transform="matrix(0,-10.0796,-10.0191,0,1985.96,1050)" font-style="normal" font-size="27.7813">
    <circle cy="-20.3" cx="-17.2" r="1.2"/>
   </g>
   <g font-weight="400" stroke-opacity="1" font-family="MS Shell Dlg 2" fill="none" stroke="#191919" stroke-miterlimit="4" transform="matrix(0,-10.0796,-10.0191,0,1985.96,1050)" font-style="normal" stroke-width="0.7" stroke-linejoin="miter" stroke-linecap="square" font-size="27.7813">
    <circle cy="-20.3" cx="-17.2" r="1.2"/>
   </g>
   <g font-weight="400" font-family="MS Shell Dlg 2" fill="#d68e6b" fill-opacity="1" stroke="none" transform="matrix(0,-10.0796,-10.0191,0,1985.96,1050)" font-style="normal" font-size="27.7813">
    <circle cy="-15.34" cx="-17.28" r="0.6"/>
   </g>
   <g font-weight="400" stroke-opacity="1" font-family="MS Shell Dlg 2" fill="none" stroke="#191919" stroke-miterlimit="4" transform="matrix(0,-10.0796,-10.0191,0,1985.96,1050)" font-style="normal" stroke-width="0.7" stroke-linejoin="miter" stroke-linecap="square" font-size="27.7813">
    <circle cy="-15.34" cx="-17.28" r="0.6"/>
   </g>
   <g font-weight="400" font-family="MS Shell Dlg 2" fill="#d68e6b" fill-opacity="1" stroke="none" transform="matrix(0,-10.0796,-10.0191,0,1985.96,1050)" font-style="normal" font-size="27.7813">
    <circle cy="-12.8" cx="-17.28" r="0.6"/>
   </g>
   <g font-weight="400" stroke-opacity="1" font-family="MS Shell Dlg 2" fill="none" stroke="#191919" stroke-miterlimit="4" transform="matrix(0,-10.0796,-10.0191,0,1985.96,1050)" font-style="normal" stroke-width="0.7" stroke-linejoin="miter" stroke-linecap="square" font-size="27.7813">
    <circle cy="-12.8" cx="-17.28" r="0.6"/>
   </g>
   <g font-weight="400" font-family="MS Shell Dlg 2" fill="#d68e6b" fill-opacity="1" stroke="none" transform="matrix(0,-10.0796,-10.0191,0,1985.96,1050)" font-style="normal" font-size="27.7813">
    <circle cy="-1.4" cx="-11.43" r="0.6"/>
   </g>
   <g font-weight="400" stroke-opacity="1" font-family="MS Shell Dlg 2" fill="none" stroke="#191919" stroke-miterlimit="4" transform="matrix(0,-10.0796,-10.0191,0,1985.96,1050)" font-style="normal" stroke-width="0.7" stroke-linejoin="miter" stroke-linecap="square" font-size="27.7813">
    <circle cy="-1.4" cx="-11.43" r="0.6"/>
   </g>
   <g font-weight="400" font-family="MS Shell Dlg 2" fill="#d68e6b" fill-opacity="1" stroke="none" transform="matrix(0,-10.0796,-10.0191,0,1985.96,1050)" font-style="normal" font-size="27.7813">
    <circle cy="5" cx="-17.28" r="0.6"/>
   </g>
   <g font-weight="400" stroke-opacity="1" font-family="MS Shell Dlg 2" fill="none" stroke="#191919" stroke-miterlimit="4" transform="matrix(0,-10.0796,-10.0191,0,1985.96,1050)" font-style="normal" stroke-width="0.7" stroke-linejoin="miter" stroke-linecap="square" font-size="27.7813">
    <circle cy="5" cx="-17.28" r="0.6"/>
   </g>
   <g font-weight="400" font-family="MS Shell Dlg 2" fill="#d68e6b" fill-opacity="1" stroke="none" transform="matrix(0,-10.0796,-10.0191,0,1985.96,1050)" font-style="normal" font-size="27.7813">
    <circle cy="7.54" cx="-17.28" r="0.6"/>
   </g>
   <g font-weight="400" stroke-opacity="1" font-family="MS Shell Dlg 2" fill="none" stroke="#191919" stroke-miterlimit="4" transform="matrix(0,-10.0796,-10.0191,0,1985.96,1050)" font-style="normal" stroke-width="0.7" stroke-linejoin="miter" stroke-linecap="square" font-size="27.7813">
    <circle cy="7.54" cx="-17.28" r="0.6"/>
   </g>
   <g font-weight="400" font-family="MS Shell Dlg 2" fill="#d68e6b" fill-opacity="1" stroke="none" transform="matrix(0,-10.0796,-10.0191,0,1985.96,1050)" font-style="normal" font-size="27.7813">
    <circle cy="34" cx="0" r="10"/>
   </g>
   <g font-weight="400" stroke-opacity="1" font-family="MS Shell Dlg 2" fill="none" stroke="#191919" stroke-miterlimit="4" transform="matrix(0,-10.0796,-10.0191,0,1985.96,1050)" font-style="normal" stroke-width="0.7" stroke-linejoin="miter" stroke-linecap="square" font-size="27.7813">
    <circle cy="34" cx="0" r="10"/>
   </g>
   <g font-weight="400" font-family="MS Shell Dlg 2" fill="#d68e6b" fill-opacity="1" stroke="none" transform="matrix(0,-10.0796,-10.0191,0,1985.96,1050)" font-style="normal" font-size="27.7813">
    <circle cy="21.1" cx="-17.2" r="1.2"/>
   </g>
   <g font-weight="400" stroke-opacity="1" font-family="MS Shell Dlg 2" fill="none" stroke="#191919" stroke-miterlimit="4" transform="matrix(0,-10.0796,-10.0191,0,1985.96,1050)" font-style="normal" stroke-width="0.7" stroke-linejoin="miter" stroke-linecap="square" font-size="27.7813">
    <circle cy="21.1" cx="-17.2" r="1.2"/>
   </g>
   <g font-weight="400" font-family="MS Shell Dlg 2" fill="#d68e6b" fill-opacity="1" stroke="none" transform="matrix(0,-10.0796,-10.0191,0,1985.96,1050)" font-style="normal" font-size="27.7813">
    <circle cy="29" cx="-14" r="0.8"/>
   </g>
   <g font-weight="400" stroke-opacity="1" font-family="MS Shell Dlg 2" fill="none" stroke="#191919" stroke-miterlimit="4" transform="matrix(0,-10.0796,-10.0191,0,1985.96,1050)" font-style="normal" stroke-width="0.7" stroke-linejoin="miter" stroke-linecap="square" font-size="27.7813">
    <circle cy="29" cx="-14" r="0.8"/>
   </g>
   <g font-weight="400" font-family="MS Shell Dlg 2" fill="#d68e6b" fill-opacity="1" stroke="none" transform="matrix(0,-10.0796,-10.0191,0,1985.96,1050)" font-style="normal" font-size="27.7813">
    <circle cy="48" cx="-12" r="2"/>
   </g>
   <g font-weight="400" stroke-opacity="1" font-family="MS Shell Dlg 2" fill="none" stroke="#191919" stroke-miterlimit="4" transform="matrix(0,-10.0796,-10.0191,0,1985.96,1050)" font-style="normal" stroke-width="0.7" stroke-linejoin="miter" stroke-linecap="square" font-size="27.7813">
    <circle cy="48" cx="-12" r="2"/>
   </g>
   <g font-weight="400" font-family="MS Shell Dlg 2" fill="#d68e6b" fill-opacity="1" stroke="none" transform="matrix(0,-10.0796,-10.0191,0,1985.96,1050)" font-style="normal" font-size="27.7813">
    <circle cy="34" cx="-14" r="0.8"/>
   </g>
   <g font-weight="400" stroke-opacity="1" font-family="MS Shell Dlg 2" fill="none" stroke="#191919" stroke-miterlimit="4" transform="matrix(0,-10.0796,-10.0191,0,1985.96,1050)" font-style="normal" stroke-width="0.7" stroke-linejoin="miter" stroke-linecap="square" font-size="27.7813">
    <circle cy="34" cx="-14" r="0.8"/>
   </g>
   <g font-weight="400" font-family="MS Shell Dlg 2" fill="#d68e6b" fill-opacity="1" stroke="none" transform="matrix(0,-10.0796,-10.0191,0,1985.96,1050)" font-style="normal" font-size="27.7813">
    <circle cy="39" cx="-14" r="0.8"/>
   </g>
   <g font-weight="400" stroke-opacity="1" font-family="MS Shell Dlg 2" fill="none" stroke="#191919" stroke-miterlimit="4" transform="matrix(0,-10.0796,-10.0191,0,1985.96,1050)" font-style="normal" stroke-width="0.7" stroke-linejoin="miter" stroke-linecap="square" font-size="27.7813">
    <circle cy="39" cx="-14" r="0.8"/>
   </g>
   <g font-weight="400" font-family="MS Shell Dlg 2" fill="#d68e6b" fill-opacity="1" stroke="none" transform="matrix(0,-10.0796,-10.0191,0,1985.96,1050)" font-style="normal" font-size="27.7813">
    <circle cy="124" cx="16" r="2"/>
   </g>
   <g font-weight="400" stroke-opacity="1" font-family="MS Shell Dlg 2" fill="none" stroke="#191919" stroke-miterlimit="4" transform="matrix(0,-10.0796,-10.0191,0,1985.96,1050)" font-style="normal" stroke-width="0.7" stroke-linejoin="miter" stroke-linecap="square" font-size="27.7813">
    <circle cy="124" cx="16" r="2"/>
   </g>
   <g font-weight="400" font-family="MS Shell Dlg 2" fill="#d68e6b" fill-opacity="1" stroke="none" transform="matrix(0,-10.0796,-10.0191,0,1985.96,1050)" font-style="normal" font-size="27.7813">
    <circle cy="118.5" cx="8.89" r="0.6"/>
   </g>
   <g font-weight="400" stroke-opacity="1" font-family="MS Shell Dlg 2" fill="none" stroke="#191919" stroke-miterlimit="4" transform="matrix(0,-10.0796,-10.0191,0,1985.96,1050)" font-style="normal" stroke-width="0.7" stroke-linejoin="miter" stroke-linecap="square" font-size="27.7813">
    <circle cy="118.5" cx="8.89" r="0.6"/>
   </g>
   <g font-weight="400" font-family="MS Shell Dlg 2" fill="#d68e6b" fill-opacity="1" stroke="none" transform="matrix(0,-10.0796,-10.0191,0,1985.96,1050)" font-style="normal" font-size="27.7813">
    <circle cy="118.5" cx="-8.89" r="0.6"/>
   </g>
   <g font-weight="400" stroke-opacity="1" font-family="MS Shell Dlg 2" fill="none" stroke="#191919" stroke-miterlimit="4" transform="matrix(0,-10.0796,-10.0191,0,1985.96,1050)" font-style="normal" stroke-width="0.7" stroke-linejoin="miter" stroke-linecap="square" font-size="27.7813">
    <circle cy="118.5" cx="-8.89" r="0.6"/>
   </g>
   <g font-weight="400" font-family="MS Shell Dlg 2" fill="#d68e6b" fill-opacity="1" stroke="none" transform="matrix(0,-10.0796,-10.0191,0,1985.96,1050)" font-style="normal" font-size="27.7813">
    <circle cy="124" cx="-16" r="2"/>
   </g>
   <g font-weight="400" stroke-opacity="1" font-family="MS Shell Dlg 2" fill="none" stroke="#191919" stroke-miterlimit="4" transform="matrix(0,-10.0796,-10.0191,0,1985.96,1050)" font-style="normal" stroke-width="0.7" stroke-linejoin="miter" stroke-linecap="square" font-size="27.7813">
    <circle cy="124" cx="-16" r="2"/>
   </g>
  </g>
 </g>
</svg>
